<svg width="416" height="416" xmlns="http://www.w3.org/2000/svg" xmlns:xlink="http://www.w3.org/1999/xlink" xml:space="preserve" overflow="hidden"><g transform="translate(-427 -106)"><g><g><path d="M0 0C1.00304 0.00273583 1.00304 0.00273583 2.02634 0.00552693 11.8063 0.050544 20.9736 0.439597 30.3929 3.31445 31.515 3.63175 32.6372 3.94904 33.7933 4.27595 47.6199 8.65695 60.6892 16.6115 71.417 26.328 72.307 27.1251 73.197 27.9222 74.1139 28.7435 81.6061 35.8183 86.9873 43.653 92.4294 52.3433 93.0898 53.3339 93.7502 54.3245 94.4306 55.3451 94.4306 56.3357 94.4306 57.3262 94.4306 58.3468 95.5243 58.0166 96.6181 57.6864 97.745 57.3462 109.774 54.4702 121.713 57.1065 132.453 62.9941 134.924 64.6626 137.196 66.4108 139.457 68.3527 140.422 69.1711 140.422 69.1711 141.407 70.006 148.57 76.6092 155.082 86.7039 155.654 96.6194 156.231 99.7562 156.231 99.7562 159.844 101.247 160.553 101.551 161.263 101.856 161.994 102.169 166.875 104.541 171.348 107.871 175.478 111.378 175.478 112.038 175.478 112.699 175.478 113.379 176.139 113.379 176.799 113.379 177.479 113.379 177.479 114.04 177.479 114.7 177.479 115.38 178.06 115.609 178.64 115.837 179.238 116.072 190.517 122.654 196.975 141.626 200.493 153.403 205.554 173.516 202.574 195.848 192.551 213.934 180.748 233.648 164.001 246.59 142.103 253.524 119.299 259.191 93.6403 256.613 70.3098 256.598 65.2 256.595 60.0903 256.598 54.9805 256.599 46.3947 256.601 37.8089 256.599 29.223 256.594 19.3904 256.588 9.55775 256.59-0.274891 256.596-8.80054 256.6-17.3262 256.601-25.8518 256.598-30.9064 256.597-35.961 256.596-41.0156 256.6-59.7841 256.611-78.5457 256.574-97.308 256.053-97.9843 256.035-98.6605 256.018-99.3573 256.001-124.901 255.334-144.927 246.409-162.932 228.212-178.862 211-183.616 190.121-183.084 167.282-182.121 145.764-171.449 125.627-155.826 111.069-140.554 97.5071-121.899 90.9801-101.685 90.3657-101.582 89.1274-101.478 87.8892-101.372 86.6135-98.8424 64.4699-88.0755 45.9037-72.6678 30.3303-72.0861 29.688-71.5043 29.0457-70.905 28.3839-58.3167 14.7492-41.1199 7.40326-23.6389 2.31386-22.998 2.12466-22.3571 1.93546-21.6968 1.74053-14.5361-0.130056-7.36087-0.0315701 0 0ZM-45.6519 23.3262C-46.3287 28.854-45.2141 32.1559-42.1224 36.5997-38.8575 40.4448-35.1301 41.5279-30.2678 42.0247-23.5697 41.8718-18.021 38.3994-12.2689 35.2786-6.05017 31.9355-0.712585 30.0918 6.39048 31.821 8.42352 32.4825 10.3988 33.2224 12.3823 34.02 13.0804 34.2956 13.7785 34.5713 14.4978 34.8552 27.6269 40.1661 27.6269 40.1661 30.9557 46.5899 32.7389 51.3823 32.9215 55.4602 31.3935 60.348 28.6894 65.9898 24.9012 68.6512 19.3864 71.3545 19.3864 72.0149 19.3864 72.6753 19.3864 73.3557 18.6022 73.6652 17.818 73.9748 17.01 74.2937 14.4602 75.2856 14.4602 75.2856 12.3823 76.3574 12.3823 77.0178 12.3823 77.6782 12.3823 78.3586 11.7219 78.3586 11.0615 78.3586 10.3811 78.3586 7.06652 83.6067 6.49334 88.3235 7.37934 94.368 9.87416 99.3577 13.3764 102.87 18.3858 105.375 26.46 106.518 31.5028 104.311 38.1474 99.9338 39.0098 99.3916 39.8721 98.8494 40.7606 98.2907 43.3236 96.6723 45.8655 95.0248 48.4035 93.3674 50.4528 92.0433 52.5033 90.7211 54.5546 89.4 56.2314 88.3134 57.8974 87.21 59.5624 86.1054 65.5029 82.471 70.5235 81.3843 77.4206 82.361 82.6507 84.2503 87.3047 87.2746 92.0503 90.1351 97.5206 93.424 103.008 96.6837 108.501 99.9338 109.895 100.761 109.895 100.761 111.317 101.605 112.236 102.148 113.155 102.692 114.102 103.252 115.442 104.045 115.442 104.045 116.81 104.854 120.029 106.712 123.307 108.448 126.615 110.144 129.998 112.419 131.417 115.53 132.453 119.383 133.284 125.082 132.734 129.524 129.451 134.392 122.735 140.754 116.24 140.732 107.475 140.786 101.994 140.942 98.7613 141.717 94.4306 145.398 91.6705 148.564 90.5398 151.72 89.8654 155.842 90.7726 161.587 93.3508 165.838 97.9952 169.35 101.677 170.955 105.118 171.551 109.107 171.878 110.002 171.957 110.896 172.035 111.818 172.115 113.673 172.271 115.528 172.425 117.384 172.576 134.252 174.061 134.252 174.061 140.458 180.419 143.54 185.319 143.16 190.851 142.459 196.428 140.771 200.737 138.572 202.762 134.638 205.125 128.877 207.417 122.638 206.592 116.569 206.309 115.154 206.255 113.739 206.201 112.323 206.149 96.5809 205.525 80.8523 204.486 65.1326 203.449 64.1072 203.383 63.0817 203.316 62.0253 203.248 60.1107 203.123 58.1963 202.995 56.2821 202.864 45.166 201.684 45.166 201.684 34.4578 203.62 30.1031 207.447 27.7729 210.386 27.2856 216.381 27.4969 220.506 29.1083 223.894 31.7496 227.083 33.6912 228.693 34.9798 229.02 37.4517 229.44 38.2321 229.588 39.0124 229.736 39.8164 229.889 41.4465 230.177 43.0777 230.458 44.7099 230.733 50.0406 231.761 53.0051 232.944 56.4082 237.452 57.5073 239.751 58.4398 242.098 59.41 244.456 68.7262 244.526 78.0423 244.579 87.3587 244.612 91.6858 244.627 96.0128 244.649 100.34 244.683 104.524 244.716 108.709 244.733 112.894 244.741 114.481 244.747 116.069 244.757 117.656 244.774 129.973 244.895 141.26 243.66 152.402 238.015 153.067 237.681 153.732 237.348 154.417 237.004 161.643 233.155 171.804 226.462 174.478 218.441 175.138 218.441 175.798 218.441 176.479 218.441 188.643 197.726 194.85 179.208 189.459 154.935 186.866 145.52 182.03 136.4 176.479 128.388 175.818 128.388 175.158 128.388 174.478 128.388 174.271 127.851 174.065 127.315 173.852 126.762 171.944 123.465 169.427 120.79 166.473 118.382 165.813 118.382 165.152 118.382 164.472 118.382 164.472 117.722 164.472 117.061 164.472 116.381 155.71 109.577 155.71 109.577 145.461 106.375 145.543 105.446 145.626 104.518 145.711 103.561 145.711 95.5961 141.569 87.9704 137.456 81.3604 136.795 81.3604 136.135 81.3604 135.455 81.3604 135.199 80.7632 134.944 80.166 134.681 79.5507 131.719 74.2587 125.423 70.7527 119.774 68.8843 112.319 67.1832 104.899 66.6682 97.53 68.8804 94.8028 69.4949 92.2131 69.4207 89.4276 69.3533 88.8446 68.2157 88.2616 67.0781 87.661 65.906 80.6964 52.6584 72.0544 38.9545 59.41 30.3303 58.7496 30.3303 58.0892 30.3303 57.4088 30.3303 57.4088 29.67 57.4088 29.0096 57.4088 28.3292 30.3202 12.6003-18.9505-3.37509-45.6519 23.3262ZM-88.5521 209.561C-89.7299 212.571-89.7947 214.425-89.7481 217.62-89.738 218.523-89.7278 219.426-89.7173 220.356-89.7043 221.045-89.6912 221.734-89.6778 222.443-90.4898 222.453-91.3018 222.462-92.1384 222.472-95.8423 222.526-99.545 222.609-103.248 222.694-105.165 222.715-105.165 222.715-107.12 222.737-116.622 222.969-116.622 222.969-124.698 227.446-126.731 229.651-126.731 229.651-128.138 232.074-128.632 232.851-129.126 233.627-129.635 234.427-130.857 236.365-130.857 236.365-130.702 238.453-128.662 239.273-126.618 240.084-124.573 240.892-123.436 241.344-122.298 241.797-121.126 242.264-115.937 244.066-111.086 244.582-105.613 244.577-103.82 244.579-103.82 244.579-101.99 244.581-100.693 244.577-99.3952 244.574-98.0582 244.57-96.6673 244.57-95.2765 244.57-93.8856 244.57-90.1215 244.571-86.3574 244.565-82.5932 244.558-78.6551 244.552-74.717 244.551-70.7789 244.55-63.3268 244.547-55.8746 244.538-48.4224 244.528-39.9362 244.517-31.45 244.512-22.9637 244.507-5.51172 244.496 11.9403 244.479 29.3923 244.456 29.255 243.186 29.1177 241.915 28.9763 240.606 28.8991 239.891 28.8218 239.176 28.7423 238.44 28.2594 235.702 27.1841 234.179 25.3274 232.137 24.7792 231.501 24.2311 230.865 23.6663 230.21 16.3938 224.584 8.24672 224.951-0.562831 224.82-3.01097 224.769-5.45904 224.715-7.907 224.656-8.98263 224.638-10.0583 224.62-11.1665 224.602-13.633 224.445-13.633 224.445-14.6336 223.444-14.5744 221.734-14.4859 220.024-14.3835 218.316-14.3133 212.318-15.6226 209.821-19.6366 205.433-23.0275 203.173-24.2327 203.172-28.2112 203.142-29.3535 203.129-30.4957 203.116-31.6726 203.103-32.9077 203.101-34.1428 203.098-35.4154 203.096-36.685 203.089-37.9547 203.083-39.2628 203.076-41.9519 203.066-44.6407 203.06-47.3299 203.061-50.7652 203.062-54.1997 203.034-57.6348 203-60.9221 202.972-64.2094 202.973-67.4967 202.971-69.3403 202.949-69.3403 202.949-71.2211 202.927-79.0988 202.97-83.2259 203.524-88.5521 209.561Z" fill="#424241" transform="matrix(1 0 0 1.00002 623.165 227.934)"/><path d="M0 0C3.23861 1.8345 6.43911 3.72646 9.62676 5.64785 15.0971 8.93676 20.5844 12.1964 26.0778 15.4466 27.4718 16.2737 27.4718 16.2737 28.894 17.1175 33.9391 20.1021 39.0015 23.0026 44.1976 25.7175 48.0208 28.1694 49.6155 31.6526 51.03 35.8961 51.5942 41.5921 51.3374 46.0515 48.0283 50.905 40.6996 57.9149 34.6959 58.2403 25.0519 58.2999 19.5735 58.4558 16.3407 59.2368 12.0071 62.912 9.08924 67.2888 8.28619 70.7061 9.0053 75.9197 10.9512 80.8025 12.7027 83.3084 17.5455 85.5933 22.4363 87.2616 27.3283 87.638 32.4566 87.9893 51.2655 89.3649 51.2655 89.3649 55.9704 93.8052 56.516 94.2979 57.0616 94.7906 57.6238 95.2983 61.4912 99.7764 61.5828 104.141 61.4776 109.889 60.788 114.655 58.7566 117.922 55.0324 120.946 48.3893 124.965 41.6772 124.174 34.1451 123.823 32.7301 123.769 31.315 123.715 29.8999 123.663 14.1574 123.039-1.57118 122-17.2909 120.963-18.3163 120.897-19.3418 120.83-20.3982 120.761-22.3128 120.637-24.2272 120.509-26.1414 120.378-38.8209 118.746-38.8209 118.746-50.0294 122.947-53.0023 125.814-53.7278 128.766-54.0943 132.859-53.9874 136.44-52.8247 138.908-51.03 141.959-46.0639 145.679-40.6022 146.068-34.6141 147.02-29.4502 148.373-26.8992 150.471-24.2017 155.029-23.0135 157.968-23.0135 157.968-23.0135 160.97-22.023 161.3-21.0324 161.63-20.0118 161.97-31.2384 161.97-42.465 161.97-54.0318 161.97-54.5271 157.513-54.5271 157.513-55.0324 152.965-56.0294 150.657-56.0294 150.657-57.5964 149.088-58.0517 148.554-58.507 148.02-58.9761 147.47-66.2583 142.136-74.2547 142.493-82.9238 142.396-85.3603 142.362-87.7966 142.319-90.2328 142.267-91.8384 142.249-91.8384 142.249-93.4764 142.23-96.0565 141.959-96.0565 141.959-98.0577 139.957-98.1124 137.565-98.1124 137.565-97.9326 134.704-97.8321 129.589-98.544 126.865-102.06 122.947-105.232 120.833-106.079 120.686-109.72 120.627-110.661 120.607-111.602 120.587-112.572 120.567-113.585 120.555-114.598 120.544-115.642 120.532-116.682 120.512-117.721 120.493-118.793 120.473-122.116 120.413-125.44 120.367-128.763 120.321-131.015 120.283-133.267 120.244-135.519 120.204-141.042 120.107-146.566 120.022-152.089 119.946-152.089 119.285-152.089 118.625-152.089 117.944-156.052 117.944-160.014 117.944-164.097 117.944-164.386 112.344-164.281 108.771-161.095 103.936-155.501 98.773-151.362 97.6366-143.847 97.6612-143.018 97.656-142.19 97.6508-141.336 97.6454-139.539 97.6351-137.742 97.6293-135.944 97.6275-133.096 97.6238-130.249 97.6071-127.401 97.5867-119.305 97.5313-111.209 97.5006-103.112 97.4761-98.1573 97.4601-93.2027 97.4299-88.248 97.3912-86.3631 97.3796-84.4782 97.3736-82.5933 97.3736-79.9518 97.3734-77.311 97.355-74.6697 97.3329-73.8965 97.3375-73.1233 97.3421-72.3267 97.3468-65.9093 97.2617-61.2519 95.8451-56.2831 91.5539-51.8652 86.3997-50.5513 83.2531-50.8229 76.4747-50.8912 75.6311-50.9596 74.7876-51.03 73.9185-51.0881 73.1988-51.1461 72.4791-51.2059 71.7375-52.06 66.4483-54.6903 63.7863-58.6712 60.3558-63.9649 57.1184-69.6518 56.6387-75.736 56.416-77.1906 56.3501-78.6453 56.2837-80.0999 56.2167-82.361 56.1217-84.6221 56.0326-86.8839 55.9543-89.0891 55.8744-91.2923 55.7715-93.4964 55.6656-95.4574 55.5904-95.4574 55.5904-97.458 55.5136-102.697 54.6316-105.807 52.3008-109.314 48.4035-113.359 42.6253-113.968 37.8932-113.067 30.8932-111.394 25.8509-108.575 22.8302-103.936 20.3245-101.996 19.4672-100.032 18.6629-98.0577 17.8855-96.9503 17.4454-96.9503 17.4454-95.8205 16.9963-93.3 16.0031-90.7723 15.032-88.2394 14.0708-87.4144 13.756-86.5894 13.4412-85.7394 13.1168-77.791 10.202-77.791 10.202-74.0436 10.8814-72.6583 12.8475-71.3299 14.8542-70.0412 16.8849-65.7104 20.8032-62.3615 21.3822-56.7487 21.2801-51.9121 20.5808-48.2979 18.096-44.2761 15.4466-42.9826 14.6333-42.9826 14.6333-41.6629 13.8035-39.0999 12.185-36.558 10.5376-34.02 8.88023-31.9707 7.55609-29.9202 6.23389-27.8689 4.9128-26.1921 3.82622-24.5261 2.72277-22.8611 1.61814-15.3435-2.98109-8.05878-3.9469 0 0Z" fill="#868685" transform="matrix(1 0 0 1.00002 705.589 311.423)"/><path d="M0 0C1.00304 0.00273583 1.00304 0.00273583 2.02634 0.00552693 11.8063 0.050544 20.9736 0.439597 30.3929 3.31445 31.515 3.63175 32.6372 3.94904 33.7933 4.27595 47.6199 8.65695 60.6892 16.6115 71.417 26.328 72.307 27.1251 73.197 27.9222 74.1139 28.7435 81.6061 35.8183 86.9873 43.653 92.4294 52.3433 93.0898 53.3339 93.7502 54.3245 94.4306 55.3451 94.4306 56.3357 94.4306 57.3262 94.4306 58.3468 95.5243 58.0166 96.6181 57.6864 97.745 57.3462 109.774 54.4702 121.713 57.1065 132.453 62.9941 134.924 64.6626 137.196 66.4108 139.457 68.3527 140.422 69.1711 140.422 69.1711 141.407 70.006 148.57 76.6092 155.082 86.7039 155.654 96.6194 156.231 99.7562 156.231 99.7562 159.844 101.247 160.553 101.551 161.263 101.856 161.994 102.169 166.875 104.541 171.348 107.871 175.478 111.378 175.478 112.038 175.478 112.699 175.478 113.379 176.139 113.379 176.799 113.379 177.479 113.379 177.479 114.04 177.479 114.7 177.479 115.38 178.06 115.609 178.64 115.837 179.238 116.072 190.517 122.654 196.975 141.626 200.493 153.403 205.554 173.516 202.574 195.848 192.551 213.934 180.748 233.648 164.001 246.59 142.103 253.524 119.299 259.191 93.6403 256.613 70.3098 256.598 65.2 256.595 60.0903 256.598 54.9805 256.599 46.3947 256.601 37.8089 256.599 29.223 256.594 19.3904 256.588 9.55775 256.59-0.274891 256.596-8.80054 256.6-17.3262 256.601-25.8518 256.598-30.9064 256.597-35.961 256.596-41.0156 256.6-59.7841 256.611-78.5457 256.574-97.308 256.053-97.9843 256.035-98.6605 256.018-99.3573 256.001-124.901 255.334-144.927 246.409-162.932 228.212-178.862 211-183.616 190.121-183.084 167.282-182.121 145.764-171.449 125.627-155.826 111.069-140.554 97.5071-121.899 90.9801-101.685 90.3657-101.582 89.1274-101.478 87.8892-101.372 86.6135-98.8424 64.4699-88.0755 45.9037-72.6678 30.3303-72.0861 29.688-71.5043 29.0457-70.905 28.3839-58.3167 14.7492-41.1199 7.40326-23.6389 2.31386-22.998 2.12466-22.3571 1.93546-21.6968 1.74053-14.5361-0.130056-7.36087-0.0315701 0 0ZM-44.6513 22.3256C-45.656 22.8067-46.6608 23.2878-47.696 23.7835-52.5431 26.3127-56.4871 29.8325-60.6607 33.3321-61.4797 33.9796-62.2988 34.6271-63.1426 35.2942-75.0117 45.1442-84.9308 60.2881-88.6772 75.3568-88.9318 78.7354-88.9318 78.7354-88.6772 81.3604-89.3376 81.3604-89.998 81.3604-90.6784 81.3604-92.1951 85.9105-92.1251 90.5458-92.3981 95.3139-92.6795 98.3704-92.6795 98.3704-93.6801 99.371-95.6793 99.5081-97.6814 99.604-99.6837 99.6837-117.653 100.907-134.095 106.154-147.712 118.382-148.534 119.111-149.355 119.84-150.202 120.59-164.136 133.679-171.847 150.943-172.926 169.916-173.479 189.414-167.491 207.628-154.091 222.131-152.336 223.951-150.541 225.698-148.713 227.446-148.05 228.082-147.387 228.718-146.704 229.373-142.512 233.161-137.526 237.452-131.702 237.452-130.249 235.346-130.249 235.346-128.951 232.699-126.149 227.73-123.874 225.723-118.695 223.444-119.226 223.796-119.758 224.148-120.305 224.511-125.293 227.997-128.145 230.911-130.702 236.452-130.702 237.112-130.702 237.772-130.702 238.453-128.662 239.273-126.618 240.084-124.573 240.892-123.436 241.344-122.298 241.797-121.126 242.264-116.041 244.03-111.243 244.579-105.88 244.615-104.742 244.624-103.604 244.634-102.432 244.644-101.197 244.65-99.9622 244.656-98.6899 244.662-97.3774 244.672-96.0648 244.682-94.7125 244.692-91.1136 244.719-87.5146 244.74-83.9156 244.76-80.1123 244.782-76.3089 244.809-72.5056 244.836-66.0894 244.88-59.6732 244.921-53.2569 244.959-45.1329 245.008-37.0088 245.062-28.8848 245.117-21.7994 245.166-14.7141 245.213-7.62872 245.258-6.13472 245.268-4.64072 245.278-3.14673 245.288 29.3175 245.502 61.7802 245.578 94.2434 245.194 97.326 245.159 100.408 245.131 103.491 245.11 107.319 245.084 111.147 245.044 114.975 244.993 116.401 244.977 117.826 244.965 119.252 244.959 131.013 244.901 141.83 243.371 152.402 238.015 153.067 237.681 153.732 237.348 154.417 237.004 161.643 233.155 171.804 226.462 174.478 218.441 175.138 218.441 175.798 218.441 176.479 218.441 188.643 197.726 194.85 179.208 189.459 154.935 186.866 145.52 182.03 136.4 176.479 128.388 175.818 128.388 175.158 128.388 174.478 128.388 174.271 127.851 174.065 127.315 173.852 126.762 171.944 123.465 169.427 120.79 166.473 118.382 165.813 118.382 165.152 118.382 164.472 118.382 164.472 117.722 164.472 117.061 164.472 116.381 155.71 109.577 155.71 109.577 145.461 106.375 145.543 105.446 145.626 104.518 145.711 103.561 145.711 95.5961 141.569 87.9704 137.456 81.3604 136.795 81.3604 136.135 81.3604 135.455 81.3604 135.072 80.4646 135.072 80.4646 134.681 79.5507 131.719 74.2587 125.423 70.7527 119.774 68.8843 112.319 67.1832 104.899 66.6682 97.53 68.8804 94.8028 69.4949 92.2131 69.4207 89.4276 69.3533 88.8446 68.2157 88.2616 67.0781 87.661 65.906 80.6964 52.6584 72.0544 38.9545 59.41 30.3303 58.7496 30.3303 58.0892 30.3303 57.4088 30.3303 57.4088 29.67 57.4088 29.0096 57.4088 28.3292 24.6493 9.30756-9.79745 3.30063-44.6513 22.3256Z" fill="#020102" transform="matrix(1 0 0 1.00002 623.165 227.934)"/><path d="M0 0C0.892556 0.00902875 1.78511 0.0180575 2.70472 0.0273598 3.38058 0.0389682 4.05645 0.0505766 4.7528 0.0625368 2.75162 2.06371 0.750442 4.06489-1.25074 6.06607-1.77642 10.7197-1.84135 14.7833 0.125074 19.0737 4.641 22.5144 9.94235 22.7135 15.4583 23.4239 22.8839 24.5672 22.8839 24.5672 25.8902 27.6413 28.2664 31.9976 28.2511 35.2389 27.7663 40.0861 27.1059 40.0861 26.4456 40.0861 25.7652 40.0861 25.5382 40.6846 25.3111 41.283 25.0773 41.8997 23.3729 44.7402 21.7074 45.6063 18.761 47.0902 16.1798 47.4622 16.1798 47.4622 13.4044 47.4593 12.3592 47.4662 11.314 47.4731 10.2371 47.4802 9.11863 47.474 8.00015 47.4679 6.84778 47.4615 4.47008 47.4789 2.09238 47.4965-0.285324 47.5143-4.02697 47.5244-7.76853 47.528-11.5102 47.5263-15.1261 47.5298-18.7412 47.5572-22.3569 47.5866-23.4754 47.5784-24.5939 47.5702-25.7462 47.5618-31.9036 47.5834-31.9036 47.5834-37.4537 49.9984-40.3443 53.3264-40.5566 55.6507-40.4926 60.0627-40.1728 63.0373-39.1589 64.8106-37.2719 67.102-32.708 70.0831-27.1702 69.9039-21.8918 70.4438-17.1458 71.3072-13.2129 73.1938-10.256 77.1079-9.42101 81.1508-9.33782 85.3547-11.2762 89.068-13.4038 91.7163-15.0252 93.0394-18.2607 94.1179-19.7194 94.2042-21.1817 94.2357-22.643 94.2315-23.5242 94.2314-24.4054 94.2313-25.3133 94.2312-26.2608 94.2261-27.2083 94.2209-28.1846 94.2156-29.1575 94.2142-30.1305 94.2128-31.1329 94.2113-34.2424 94.2057-37.3518 94.1931-40.4613 94.1804-42.5687 94.1754-44.676 94.1708-46.7834 94.1667-51.9512 94.1557-57.1189 94.1384-62.2867 94.1179-67.3696 73.967-66.3391 54.4777-56.0955 35.9587-45.2609 18.2629-29.2678 6.23298-9.25545 1.06313-8.57958 0.865783-7.90371 0.66844-7.20737 0.465117-4.76915-0.0371551-2.48702-0.0327239 0 0Z" fill="#858484" transform="matrix(1 0 0 1.00002 515.727 329.247)"/><path d="M0 0C2.1693 0.972445 3.73828 1.67887 5.26091 3.53724 8.44941 6.21815 12.9989 6.18551 17.0296 6.73248 21.7619 7.47714 24.5975 8.63359 28.0165 12.0071 29.7434 15.4609 29.3777 19.23 29.0171 23.0135 27.2474 27.2981 25.2005 29.1217 21.0124 31.0183 17.1829 31.5073 13.3628 31.5762 9.50559 31.6436 7.45221 31.6949 5.39891 31.7495 3.34572 31.8078 1.98657 31.8341 1.98657 31.8341 0.599962 31.861-2.01567 32.0197-4.45026 32.4454-7.00412 33.0194-7.722 21.4802-5.34437 10.2547 0 0Z" fill="#848483" transform="matrix(1 0 0 1.00002 539.491 290.285)"/><path d="M0 0C1.12045 0.047804 2.2409 0.095608 3.39531 0.144861 5.17587 0.255019 5.17587 0.255019 6.9924 0.367404 8.19943 0.4273 9.40646 0.487196 10.6501 0.548907 19.9274 1.04997 29.1301 1.90855 38.3233 3.2441 38.3233 3.57429 38.3233 3.90448 38.3233 4.24469 30.5589 4.35703 22.8701 4.21799 15.1222 3.74439 2.64742 2.83033 2.64742 2.83033-9.70493 4.24469-6.58264 0.474572-4.86032-0.243075 0 0Z" fill="#7A7B79" transform="matrix(1 0 0 1.00002 665.264 428.127)"/><path d="M0 0C4.09658 5.16525 4.59777 9.58115 4.00236 16.0094 1.94042 21.9661-1.92585 25.3154-7.37934 28.3292-11.0107 29.2802-14.2607 29.1442-18.0106 29.0171-18.0106 28.3567-18.0106 27.6963-18.0106 27.0159-16.7975 26.8689-16.7975 26.8689-15.5599 26.7188-7.39355 25.7755-7.39355 25.7755-1.00059 21.0124 1.79339 16.4888 1.43946 11.1518 1.00059 6.00353 0.149488 3.02198 0.149488 3.02198-1.00059 1.00059-0.670394 0.670394-0.3402 0.3402 0 0Z" fill="#777878" transform="matrix(1 0 0 1.00002 752.616 340.316)"/><path d="M0 0C0.660389 0.330194 1.32078 0.660389 2.00118 1.00059-0.116365 3.34333-2.24574 5.67498-4.37758 8.00471-4.98121 8.67284-5.58485 9.34096-6.20678 10.0293-6.7872 10.6614-7.36762 11.2934-7.96562 11.9445-8.76733 12.8248-8.76733 12.8248-9.58523 13.7229-11.0065 15.0088-11.0065 15.0088-13.0077 15.0088-11.3966 10.9327-8.46676 8.23978-5.37816 5.25309-4.86224 4.74619-4.34631 4.23929-3.81474 3.71703-2.54767 2.47342-1.27444 1.23607 0 0ZM-14.0082 15.0088C-13.678 15.9994-13.3479 16.99-13.0077 18.0106-14.3284 19.3314-15.6492 20.6522-17.01 22.013-16.2596 17.2602-16.2596 17.2602-14.0082 15.0088Z" fill="#070809" transform="matrix(1 0 0 1.00002 555.5 253.262)"/><path d="M0 0C2.44026 0.509647 4.64257 1.17977 7.00412 2.00118 7.00412 2.33137 7.00412 2.66157 7.00412 3.00177 5.90648 2.99016 4.80885 2.97855 3.67795 2.96659 2.22266 2.9572 0.76738 2.9481-0.687905 2.93923-1.40956 2.93085-2.13122 2.92246-2.87474 2.91382-6.71951 2.89627-10.2724 3.06656-14.0082 4.00236-10.3876-1.26409-5.79367-0.621067 0 0Z" fill="#717170" transform="matrix(1 0 0 1.00002 669.568 428.37)"/><path d="M0 0C0.330194 0 0.660389 0 1.00059 0 1.00059 2.31136 1.00059 4.62272 1.00059 7.00412 2.05308 6.81839 3.10558 6.63265 4.18997 6.44129 7.57566 6.05277 9.77001 6.12113 13.0077 7.00412 13.0077 7.66451 13.0077 8.3249 13.0077 9.0053 7.06416 9.50059 7.06416 9.50059 1.00059 10.0059-0.607614 6.78948-0.0575157 3.56597 0 0Z" fill="#60675D" transform="matrix(1 0 0 1.00002 540.492 422.366)"/><path d="M0 0C1.00059 2.00118 1.00059 2.00118 0.433849 3.77175-2.00172 8.76705-4.33205 11.9265-9.0053 15.0088-9.99588 14.6786-10.9865 14.3484-12.0071 14.0082-10.9339 13.3479-9.8608 12.6875-8.75515 12.0071-5.08568 9.42209-3.48782 6.74497-1.72758 2.67345-1.00059 1.00059-1.00059 1.00059 0 0Z" fill="#282627" transform="matrix(1 0 0 1.00002 655.559 283.281)"/><path d="M0 0C0.660389 0.330194 1.32078 0.660389 2.00118 1.00059-1.63096 4.30253-5.2631 7.60447-9.0053 11.0065-9.66569 10.6763-10.3261 10.3461-11.0065 10.0059-9.55037 8.52282-8.09046 7.04347-6.6289 5.56577-5.81631 4.74158-5.00373 3.91738-4.16651 3.06821-2.00118 1.00059-2.00118 1.00059 0 0Z" fill="#080B0B" transform="matrix(1 0 0 1.00002 472.452 335.313)"/><path d="M0 0C3.7749 0.539271 5.68548 1.99653 8.00471 5.00294 7.75456 7.25427 7.75456 7.25427 7.00412 9.0053 6.75648 8.22109 6.50883 7.43688 6.25368 6.6289 4.82043 3.61908 3.97141 3.24701 1.00059 2.00118 0.670394 1.34079 0.3402 0.6804 0 0Z" fill="#7C7D7D" transform="matrix(1 0 0 1.00002 756.619 403.354)"/></g></g></g></svg>