<svg width="89" height="84" xmlns="http://www.w3.org/2000/svg">
 <!-- SVG created with Arrow, by QuiverAI (https://quiver.ai) -->

 <g>
  <title>Layer 1</title>
  <path id="svg_1" d="m26.8,80.6l-22.8,0l0,-77.5l22.8,0l0,6.2l-16.4,0l0,65.1l16.4,0l0,6.2z"/>
  <path id="svg_2" d="m84.81235,80.6l-22.8,0l0,-6.2l16.2,0l0,-65.1l-16.2,0l0,-6.2l22.8,0l0,77.5z"/>
  <path id="svg_3" d="m33.36543,41.4l24.6,-28.7l-8.5,0l-24.7,28.7l24.7,29.6l8.6,0l-24.7,-29.6z"/>
  <path id="svg_4" d="m2.6,101.3l2.3,0l0,10.7l9.5,-10.7l3.3,0l-10.9,11.6l11.9,11.8l-3.4,0l-10.4,-10.8l0,10.8l-2.3,0l0,-23.4z"/>
  <path id="svg_5" d="m33.3,111.3l0,-2.6l2.5,0l0,16l-2.6,0l0,-2.5c-1.1,1.4 -2.9,2.9 -5.9,2.9c-4.1,0 -8,-2.8 -8,-8.1c0,-5.1 3.7,-8.6 8.1,-8.6c2.9,0 4.7,1.4 5.9,2.9zm-11.5,5.6c0,3 2,5.9 5.7,5.9c2.9,0 5.9,-2.2 5.9,-5.9s-2.5,-6.2 -5.8,-6.2c-3.5,0 -5.8,2.7 -5.8,6.2z"/>
  <path id="svg_6" d="m54.1,111.3l0,-2.6l2.5,0l0,16l-2.6,0l0,-2.5c-1.1,1.4 -2.9,2.9 -5.9,2.9c-4.1,0 -8.1,-2.9 -8.1,-8.2c0,-4.8 3.6,-8.5 8.2,-8.5c2.9,0 4.7,1.4 5.9,2.9zm-11.6,5.6c0,3 2,5.9 5.8,5.9c2.9,0 5.8,-2.2 5.8,-5.9s-2.5,-6.2 -5.8,-6.2c-3.4,0 -5.8,2.7 -5.8,6.2z"/>
  <path id="svg_7" d="m74.3,111.7c1.1,-1.9 3.1,-3.3 5.6,-3.3c3.8,0 6.1,2.5 6.1,6.5l0,9.8l-2.4,0l0,-9.7c0,-2.2 -1.1,-4.4 -4,-4.4c-2.5,0 -4.6,2 -4.6,5.3l0,8.8l-2.5,0l0,-9.7c0,-2.6 -1.4,-4.4 -3.9,-4.4s-4.5,2.1 -4.5,5.3l0,8.7l-2.5,0l0,-15.9l2.4,0l0,2.5c0.7,-1.5 2.3,-2.8 4.9,-2.8c2.7,0 4.4,1.2 5.4,3.3z"/>
  <path id="svg_8" d="m92.6,117.3c0.3,3.4 2.7,5.5 5.9,5.5c2.4,0 4.4,-1 5.1,-3l2,1.4c-1,2.3 -3.5,3.9 -7.1,3.9c-5,0 -8.3,-3.5 -8.3,-8.3c0,-4.7 3.3,-8.4 8.1,-8.4c4.6,0 8,3 8,7.9l0,1l-13.7,0zm5.7,-6.7c-2.5,0 -4.9,1.6 -5.6,4.8l10.9,0c0,-2.6 -2.2,-4.8 -5.3,-4.8z"/>
  <path id="svg_9" d="m109.7,116.8c0,-4.5 3.2,-8.4 8.1,-8.4s7.8,3.9 7.8,8.4c0,4.7 -3.2,8.3 -7.7,8.3c-5.1,0 -8.2,-3.5 -8.2,-8.3zm2.5,0c0,3.2 2.2,6 5.6,6c2.9,0 5.5,-2.4 5.4,-6c0,-2.9 -1.9,-6.1 -5.4,-6.1c-3.7,-0.1 -5.6,2.8 -5.6,6.1z"/>
 </g>
</svg>