<svg xmlns="http://www.w3.org/2000/svg" width="250" height="250" viewBox="0 60 250 130" fill="none">
<path d="M 107.66,88.09 L 90.78,87.37 L 91.07,104.91 C 85.71,98.97 80.65,94.48 73.91,92.81 L 61.27,80.02 L 72.46,67.63 C 86.68,69.72 98.72,76.78 107.66,88.09 Z" fill="url(#paint0_linear_410_2330)"/>
<path d="M 106.87,120.38 L 95.91,110.01 V 92.63 H 112.12 L 121.31,103.19 L 106.87,120.38 Z" fill="url(#paint1_linear_410_2330)"/>
<path d="M 65.37,67.18 H 65.5 L 54.06,79.61 L 64.81,90.96 C 57.28,90.96 51.17,92.48 45.37,95.81 L 27.61,96.07 V 79.61 C 37.72,71.19 48.77,67.18 61.16,67.18 H 65.37 Z" fill="url(#paint2_linear_410_2330)"/>
<path d="M 21.93,84.41 V 101.83 L 38.74,101.53 C 33.89,106.71 31.49,111.12 29.66,116.93 L 17.36,129.41 L 6.18,118.06 C 7.73,105.61 13.05,93.88 21.93,84.41 Z" fill="url(#paint3_linear_410_2330)"/>
<path d="M 6.02,124.77 L 17.41,136.91 L 29.03,124.91 C 29.31,132.06 30.66,137.35 34.71,143.88 V 160.19 H 16.96 C 8.96,150.08 6.02,138.98 6.02,124.77 Z" fill="url(#paint4_linear_410_2330)"/>
<path d="M 22.08,165.74 H 40.36 V 149.07 C 45.72,154.73 50.12,156.92 56.61,157.91 L 68.01,170.4 L 57.75,182.01 C 44.88,180.68 33.79,175.66 22.08,165.74 Z" fill="url(#paint5_linear_410_2330)"/>
<path d="M 64.56,182.01 L 75.31,170.11 L 64.81,158.76 C 74.19,158.06 79.81,155.03 86.21,150.08 H 103.38 V 166.25 C 91.77,176.67 80.11,181.71 64.56,182.01 Z" fill="url(#paint6_linear_410_2330)"/>
<path d="M 227.71,84.41 C 238.71,95.71 243.98,109.92 243.98,124.72 C 243.98,137.21 240.34,148.91 234.05,157.61 H 216.14 V 140.19 C 219.22,134.28 220.05,125.26 217.91,117.32 C 216.29,111.51 213.94,107.11 210.66,102.31 L 227.02,102.17 L 227.71,84.41 Z" fill="url(#paint7_linear_410_2330)"/>
<path d="M 146.18,150.08 H 163.93 C 170.72,156.28 177.62,158.76 185.99,158.76 C 196.74,158.76 205.47,153.91 210.83,146.72 V 162.98 H 229.86 C 218.25,174.93 205.72,182.01 185.69,182.01 C 170.14,182.01 158.23,176.92 146.18,167.01 V 150.08 Z" fill="url(#paint8_linear_410_2330)"/>
<path d="M 127.2,146.38 L 143.56,127.81 L 158.87,145.39 L 141.43,145.1 L 141.72,161.22 L 127.2,146.38 Z" fill="url(#paint9_linear_410_2330)"/>
<path d="M 142.35,86.42 C 155.22,72.21 170.19,67.03 185.44,67.03 H 187.12 C 200.72,67.03 212.12,71.43 222.23,79.12 L 222.08,96.94 L 204.92,96.65 C 198.72,92.33 193.66,90.61 185.64,90.61 C 174.25,90.61 165.21,96.65 158.72,105.06 L 108.53,161.12 V 144.31 H 91.37 L 142.35,86.42 Z" fill="url(#paint10_linear_410_2330)"/>
<path fill-rule="evenodd" clip-rule="evenodd" d="M 154.96,118.6 H 212.71 C 214.11,118.6 214.51,119.74 214.51,120.72 V 132.95 C 214.51,134.47 213.78,135.06 212.42,135.06 H 156.12 C 154.62,135.06 153.46,134.28 153.46,132.61 V 120.72 C 153.46,119.39 153.9,118.6 154.96,118.6 Z M 161.31,130.42 C 163.93,130.42 164.32,128.39 164.32,127.41 C 164.32,125.69 162.81,124.27 161.21,124.27 C 159.38,124.27 157.98,125.79 157.98,127.41 C 157.98,129.03 159.23,130.42 161.31,130.42 Z" fill="url(#paint11_linear_410_2330)"/>
<path d="M 166.1,107.85 L 154.14,117.77 H 213.64 L 203.14,107.85 C 202.41,107.21 201.82,107.41 200.62,107.41 H 168.23 C 167.21,107.41 166.82,107.36 166.1,107.85 Z" fill="url(#paint12_linear_410_2330)"/>
<path d="M 190.71,131.52 C 190.37,132.16 189.78,132.26 189.29,132.02 C 188.75,131.72 188.75,130.98 188.99,130.49 L 192.63,123.88 C 192.93,123.34 193.56,123.14 194.05,123.39 C 194.64,123.68 194.69,124.37 194.39,124.96 L 190.71,131.52 Z" fill="#FEFFFE"/>
<path d="M 195.62,131.52 C 195.28,132.16 194.69,132.26 194.2,132.02 C 193.66,131.72 193.66,130.98 193.91,130.49 L 197.55,123.88 C 197.84,123.34 198.48,123.14 198.97,123.39 C 199.56,123.68 199.61,124.37 199.31,124.96 L 195.62,131.52 Z" fill="#FEFFFE"/>
<path d="M 200.23,131.52 C 199.89,132.16 199.31,132.26 198.82,132.02 C 198.28,131.72 198.28,130.98 198.52,130.49 L 202.16,123.88 C 202.46,123.34 203.09,123.14 203.58,123.39 C 204.17,123.68 204.22,124.37 203.93,124.96 L 200.23,131.52 Z" fill="#FEFFFE"/>
<path d="M 205.45,131.52 C 205.11,132.16 204.52,132.26 204.03,132.02 C 203.49,131.72 203.49,130.98 203.73,130.49 L 207.37,123.88 C 207.67,123.34 208.31,123.14 208.8,123.39 C 209.38,123.68 209.43,124.37 209.14,124.96 L 205.45,131.52 Z" fill="#FEFFFE"/>
<defs>
<linearGradient id="paint0_linear_410_2330" x1="68.5271" y1="69.1908" x2="91.3694" y2="99.0857" gradientUnits="userSpaceOnUse">
<stop stop-color="#F74C83"/>
<stop offset="1" stop-color="#F24141"/>
</linearGradient>
<linearGradient id="paint1_linear_410_2330" x1="100.607" y1="93.9081" x2="112.012" y2="118.984" gradientUnits="userSpaceOnUse">
<stop stop-color="#D9394C"/>
<stop offset="1" stop-color="#C62849"/>
</linearGradient>
<linearGradient id="paint2_linear_410_2330" x1="35.8372" y1="68.9523" x2="50.7046" y2="99.0369" gradientUnits="userSpaceOnUse">
<stop stop-color="#F74C4C"/>
<stop offset="1" stop-color="#F24141"/>
</linearGradient>
<linearGradient id="paint3_linear_410_2330" x1="10.3321" y1="88.3201" x2="26.6015" y2="124.816" gradientUnits="userSpaceOnUse">
<stop stop-color="#F74C4C"/>
<stop offset="1" stop-color="#CC2839"/>
</linearGradient>
<linearGradient id="paint4_linear_410_2330" x1="10.1409" y1="127.217" x2="26.4103" y2="160.186" gradientUnits="userSpaceOnUse">
<stop stop-color="#D62849"/>
<stop offset="1" stop-color="#C62849"/>
</linearGradient>
<linearGradient id="paint5_linear_410_2330" x1="27.855" y1="152.351" x2="46.936" y2="181.86" gradientUnits="userSpaceOnUse">
<stop stop-color="#D62849"/>
<stop offset="1" stop-color="#CC2849"/>
</linearGradient>
<linearGradient id="paint6_linear_410_2330" x1="70.3483" y1="151.266" x2="85.2157" y2="181.351" gradientUnits="userSpaceOnUse">
<stop stop-color="#D62849"/>
<stop offset="1" stop-color="#CC2849"/>
</linearGradient>
<linearGradient id="paint7_linear_410_2330" x1="220.477" y1="87.0411" x2="239.851" y2="156.426" gradientUnits="userSpaceOnUse">
<stop stop-color="#F74C83"/>
<stop offset="1" stop-color="#C62873"/>
</linearGradient>
<linearGradient id="paint8_linear_410_2330" x1="173.838" y1="149.246" x2="188.706" y2="187.089" gradientUnits="userSpaceOnUse">
<stop stop-color="#C62860"/>
<stop offset="1" stop-color="#C62860"/>
</linearGradient>
<linearGradient id="paint9_linear_410_2330" x1="139.224" y1="128.056" x2="149.134" y2="156.722" gradientUnits="userSpaceOnUse">
<stop stop-color="#C62860"/>
<stop offset="1" stop-color="#C62860"/>
</linearGradient>
<linearGradient id="paint10_linear_410_2330" x1="151.204" y1="69.7225" x2="174.046" y2="148.007" gradientUnits="userSpaceOnUse">
<stop stop-color="#F74C83"/>
<stop offset="1" stop-color="#C62860"/>
</linearGradient>
<linearGradient id="paint11_linear_410_2330" x1="183.986" y1="118.604" x2="186.443" y2="137.125" gradientUnits="userSpaceOnUse">
<stop stop-color="#C62860"/>
<stop offset="1" stop-color="#C62860"/>
</linearGradient>
<linearGradient id="paint12_linear_410_2330" x1="183.154" y1="107.261" x2="184.71" y2="119.109" gradientUnits="userSpaceOnUse">
<stop stop-color="#C62860"/>
<stop offset="1" stop-color="#C62860"/>
</linearGradient>
</defs>
</svg>